<svg width="124" height="68" viewBox="0 0 124 68" fill="none" xmlns="http://www.w3.org/2000/svg">
<path d="M7.9541 52.9648V46.9224L11.2939 46.9663C11.8799 46.9663 12.4438 46.8711 12.9858 46.6807C13.5278 46.4902 14.0259 46.2266 14.48 45.8896C14.9487 45.5527 15.3589 45.1499 15.7104 44.6812C16.062 44.2271 16.3477 43.729 16.5674 43.187C15.9082 43.4653 15.2344 43.7437 14.5459 44.022C13.8721 44.3003 13.1909 44.4395 12.5024 44.4395C11.0522 44.4395 9.68994 44.1831 8.41553 43.6704C7.14111 43.1577 6.02051 42.4326 5.05371 41.4951C4.10156 40.543 3.34717 39.3931 2.79053 38.0454C2.24854 36.6831 1.97754 35.1597 1.97754 33.4751V20.4673H7.9541V33.4751C7.9541 34.3101 8.07129 35.0425 8.30566 35.6724C8.55469 36.2876 8.88428 36.8076 9.29443 37.2324C9.70459 37.6426 10.1807 37.9502 10.7227 38.1553C11.2793 38.3604 11.8726 38.4629 12.5024 38.4629C13.1177 38.4629 13.6963 38.3237 14.2383 38.0454C14.7949 37.7524 15.2783 37.3716 15.6885 36.9028C16.0986 36.4341 16.4209 35.9067 16.6553 35.3208C16.8896 34.7202 17.0068 34.105 17.0068 33.4751V20.4673H23.0493V41.0337C23.0347 42.689 22.7124 44.2417 22.0825 45.6919C21.4526 47.1421 20.5884 48.4092 19.4897 49.4932C18.4058 50.5771 17.1387 51.4341 15.6885 52.064C14.2383 52.6938 12.6855 53.0088 11.0303 53.0088L7.9541 52.9648ZM50.3833 32.0249C50.3833 33.7827 50.0684 35.4233 49.4385 36.9468C48.8086 38.4556 47.9517 39.7666 46.8677 40.8799C45.7837 41.9785 44.5093 42.8501 43.0444 43.4946C41.5942 44.1245 40.0342 44.4395 38.3643 44.4395C36.709 44.4395 35.1489 44.1245 33.6841 43.4946C32.2339 42.8501 30.9595 41.9785 29.8608 40.8799C28.7769 39.7666 27.9199 38.4556 27.29 36.9468C26.6602 35.4233 26.3452 33.7827 26.3452 32.0249C26.3452 30.2378 26.6602 28.5825 27.29 27.0591C27.9199 25.5356 28.7769 24.2246 29.8608 23.126C30.9595 22.0127 32.2339 21.1411 33.6841 20.5112C35.1489 19.8813 36.709 19.5664 38.3643 19.5664C40.0342 19.5664 41.5942 19.8667 43.0444 20.4673C44.5093 21.0532 45.7837 21.8955 46.8677 22.9941C47.9517 24.0781 48.8086 25.3892 49.4385 26.9272C50.0684 28.4507 50.3833 30.1499 50.3833 32.0249ZM44.3408 32.0249C44.3408 31.0581 44.1797 30.1865 43.8574 29.4102C43.5498 28.6191 43.125 27.9453 42.583 27.3887C42.041 26.8174 41.4038 26.3853 40.6714 26.0923C39.9536 25.7847 39.1846 25.6309 38.3643 25.6309C37.5439 25.6309 36.7676 25.7847 36.0352 26.0923C35.3174 26.3853 34.6875 26.8174 34.1455 27.3887C33.6182 27.9453 33.2007 28.6191 32.8931 29.4102C32.5854 30.1865 32.4316 31.0581 32.4316 32.0249C32.4316 32.9331 32.5854 33.7754 32.8931 34.5518C33.2007 35.3281 33.6182 36.002 34.1455 36.5732C34.6875 37.1445 35.3174 37.5986 36.0352 37.9355C36.7676 38.2578 37.5439 38.4189 38.3643 38.4189C39.1846 38.4189 39.9536 38.2651 40.6714 37.9575C41.4038 37.6499 42.041 37.2178 42.583 36.6611C43.125 36.1045 43.5498 35.4307 43.8574 34.6396C44.1797 33.8486 44.3408 32.9771 44.3408 32.0249ZM74.2676 25.1475L69.873 29.564C69.6533 28.9487 69.353 28.3994 68.9722 27.916C68.5913 27.418 68.1592 27.0005 67.6758 26.6636C67.207 26.3267 66.6943 26.0703 66.1377 25.8945C65.5811 25.7188 65.0098 25.6309 64.4238 25.6309C63.6035 25.6309 62.8271 25.7993 62.0947 26.1362C61.377 26.4731 60.7471 26.9492 60.2051 27.5645C59.6777 28.165 59.2603 28.8828 58.9526 29.7178C58.645 30.5527 58.4912 31.4756 58.4912 32.4863C58.4912 33.3066 58.645 34.0757 58.9526 34.7935C59.2603 35.5112 59.6777 36.1411 60.2051 36.6831C60.7471 37.2251 61.377 37.6499 62.0947 37.9575C62.8271 38.2651 63.6035 38.4189 64.4238 38.4189C65.0098 38.4189 65.5737 38.3384 66.1157 38.1772C66.6577 38.0161 67.1631 37.7891 67.6318 37.4961C68.1152 37.1885 68.54 36.8223 68.9062 36.3975C69.2871 35.958 69.5947 35.4746 69.8291 34.9473L74.2236 39.3638C73.667 40.1548 73.0225 40.8652 72.29 41.4951C71.5723 42.125 70.7886 42.6597 69.939 43.0991C69.104 43.5386 68.2178 43.8682 67.2803 44.0879C66.3574 44.3223 65.4053 44.4395 64.4238 44.4395C62.7686 44.4395 61.2085 44.1318 59.7437 43.5166C58.2935 42.8867 57.019 42.0298 55.9204 40.9458C54.8364 39.8618 53.9795 38.5947 53.3496 37.1445C52.7197 35.6943 52.4048 34.1416 52.4048 32.4863C52.4048 30.6846 52.7197 29 53.3496 27.4326C53.9795 25.8652 54.8364 24.5029 55.9204 23.3457C57.019 22.1738 58.2935 21.251 59.7437 20.5771C61.2085 19.9033 62.7686 19.5664 64.4238 19.5664C65.4053 19.5664 66.3647 19.6909 67.3022 19.9399C68.2544 20.189 69.1553 20.5552 70.0049 21.0386C70.8691 21.5073 71.6602 22.0859 72.3779 22.7744C73.1104 23.4629 73.7402 24.2539 74.2676 25.1475ZM83.2104 44H77.2119V11.1069H83.2104V21.5C83.9282 20.958 84.668 20.5771 85.4297 20.3574C86.1914 20.123 86.9678 20.0059 87.7588 20.0059C89.209 20.0059 90.5713 20.2842 91.8457 20.8408C93.1201 21.3828 94.2261 22.1372 95.1636 23.104C96.1157 24.0562 96.8628 25.1768 97.4048 26.4658C97.9614 27.7402 98.2397 29.1025 98.2397 30.5527V44H92.1973V30.5527H92.2412C92.2412 29.9375 92.124 29.3589 91.8896 28.8169C91.6553 28.2603 91.333 27.7769 90.9229 27.3667C90.5127 26.9565 90.0366 26.6343 89.4946 26.3999C88.9526 26.1655 88.374 26.0483 87.7588 26.0483C87.1289 26.0483 86.5356 26.1655 85.979 26.3999C85.4224 26.6343 84.939 26.9565 84.5288 27.3667C84.1187 27.7769 83.7964 28.2603 83.562 28.8169C83.3276 29.3589 83.2104 29.9375 83.2104 30.5527V44Z" fill="#151522"/>
<path d="M121.116 38.1035V44.0801H102.659V38.1035H121.116Z" fill="#151522"/>
</svg>
